<svg width="368" height="118" viewBox="0 0 368 118" fill="none" xmlns="http://www.w3.org/2000/svg">
<path d="M357.336 8.99534L303.293 9.01214V23.4348L289.651 27.1572V9.01214L278.439 9.01214V52.6866L289.651 52.6867V37.5921L303.293 33.8697V52.6867H314.504V27.1438L309.885 18.9901H328.047V64.2738L339.259 61.2133V18.9901H351.671L357.336 8.99534Z" fill="#FFFEF9"></path>
<path d="M255.749 26.8548L250.845 35.5058H262.552C261.886 39.9438 258.697 43.2126 252.303 43.2126C245.668 43.2126 241.688 39.0232 241.688 30.7755C241.688 23.2063 245.269 18.4727 252.303 18.4727C256.619 18.4727 259.475 20.0853 261.342 23.1862L271.676 20.3641C269.157 11.982 261.065 8.3335 251.64 8.3335C241.025 8.3335 230.411 15.6339 230.411 30.9099C230.411 46.1859 240.626 53.3518 252.306 53.3518C266.901 53.3518 274.733 41.59 273.005 26.8548L255.749 26.8548Z" fill="#FFFEF9"></path>
<path d="M151.266 25.595L162.666 9.00542L172.486 9.00542V52.6799L161.868 52.6799V28.0441L151.25 42.9439L140.635 28.0441V52.6799H130.017V9.00541L139.969 9.00541L151.266 25.595Z" fill="#FFFEF9"></path>
<path fill-rule="evenodd" clip-rule="evenodd" d="M125.819 52.69H114.608L111.973 43.5519L96.5241 47.7581L95.0996 52.69H84.0825L96.3295 14.1187L93.4376 9.01549L111.953 9.01549L125.819 52.69ZM104.854 18.8994L99.4919 37.4677L109.421 34.7163L104.854 18.8994Z" fill="#FFFEF9"></path>
<path d="M213.636 9.00546L224.848 9.00546V52.68H213.636V9.00546Z" fill="#FFFEF9"></path>
<path d="M207.588 19.0002V9.00541L180.648 9.00541V52.6799H191.859V38.0725H200.535L206.197 28.0777H191.859V19.0002H207.588Z" fill="#FFFEF9"></path>
<path d="M64.5314 35.1698V42.6751L81.5895 42.6751L78.015 52.6699L53.3198 52.6698L53.3198 27.4629L58.121 18.9901L39.9582 18.9901L39.9582 64.2772L28.7465 61.2166L28.7465 18.9901L16.3346 18.9901L10.6694 8.99534L81.4544 8.99534V18.9901L64.5314 18.9901V25.679H78.2722V35.1698H64.5314Z" fill="#FFFEF9"></path>
<path d="M296.968 80.3496C298.311 80.6294 300.17 81.017 303.316 81.7201C310.214 83.2084 314.593 86.316 314.593 93.4854C314.593 103.759 305.97 108.627 296.681 108.627C284.833 108.627 279.125 103.436 277.222 95.8304L287.791 92.9445C288.721 96.7307 291.771 99.4352 296.549 99.4352C301.855 99.4352 303.316 97.2716 303.316 94.8393C303.316 92.8101 301.591 91.7283 297.875 90.9187L290.841 89.4304C283.145 87.8077 279.297 83.6183 279.297 77.1276C279.297 68.0702 286.462 63.6087 296.15 63.6087C306.897 63.6087 313.001 68.4767 313.931 74.1544L303.557 76.9865C302.557 74.4903 300.427 72.6661 296.15 72.6661C292.833 72.6661 290.31 74.0166 290.31 76.1802C290.31 78.206 291.771 79.1534 294.558 79.8287C295.285 79.9987 295.989 80.1455 296.968 80.3496Z" fill="#FFFEF9"></path>
<path d="M263.224 91.6275C261.843 95.8808 259.168 98.4844 253.451 98.4844C246.816 98.4844 242.704 93.7541 242.704 86.0473C242.704 78.206 246.684 73.7445 253.451 73.7445C257.605 73.7445 260.919 75.8174 262.38 79.607L272.955 76.7211C270.169 67.1228 262.341 63.6087 253.183 63.6087C241.771 63.6087 231.288 70.909 231.288 86.185C231.288 101.461 241.24 108.627 252.916 108.627C262.604 108.627 270.829 104.706 273.483 94.4328L263.224 91.6275Z" fill="#FFFEF9"></path>
<path d="M150.91 98.4844C156.628 98.4844 159.303 95.8808 160.684 91.6275L170.943 94.4328C168.288 104.706 160.064 108.627 150.376 108.627C138.7 108.627 128.748 101.461 128.748 86.185C128.748 70.909 139.23 63.6087 150.643 63.6087C159.801 63.6087 167.629 67.1228 170.415 76.7211L159.84 79.607C158.379 75.8174 155.065 73.7445 150.91 73.7445C144.144 73.7445 140.164 78.206 140.164 86.0473C140.164 93.7541 144.276 98.4844 150.91 98.4844Z" fill="#FFFEF9"></path>
<path d="M224.848 64.2772H213.636V107.952H224.848V64.2772Z" fill="#FFFEF9"></path>
<path d="M170.066 64.2772H209.514L203.852 74.272H195.394L195.394 107.952H184.183V74.272L175.728 74.2719L170.066 64.2772Z" fill="#FFFEF9"></path>
<path d="M90.4896 64.2772L51.0412 64.2772L56.703 74.2719H65.1612L65.1612 107.952H76.3728L76.3728 74.2719H84.8277L90.4896 64.2772Z" fill="#FFFEF9"></path>
<path fill-rule="evenodd" clip-rule="evenodd" d="M128.177 107.952H116.965L114.331 98.8137L98.8818 103.02L97.4573 107.952H86.4402L98.6873 69.3804L95.7953 64.2772H114.311L128.177 107.952ZM107.211 74.1611L101.85 92.7295L111.778 89.978L107.211 74.1611Z" fill="#FFFEF9"></path>
<path d="M314.593 64.7744H315.543V67.4352H316.143V64.7744H317.086V64.2772H314.593V64.7744Z" fill="#FFFEF9"></path>
<path d="M318.593 64.2772L319.441 66.5113L320.285 64.2772H321.152V67.4352H320.588V64.9659H320.572L319.649 67.4352H319.223L318.3 64.9659H318.283V67.4352H317.72V64.2772H318.593Z" fill="#FFFEF9"></path>
</svg>
